# Made in Blockbench 3.7.4
mtllib spear.mtl
o cube
v -0.1318834254156241 0.11235803136828162 0.10598318209832053
v -0.12092414674589717 0.13120283420017384 0.0937452240469798
v 0.1394479655400443 -0.14155539375468343 -0.04202779325278866
v 0.1504072442097712 -0.12271059092279121 -0.05426575130412936
v -0.1356656954778342 0.12695671256148255 0.07400548767555468
v -0.14662497414756115 0.10811190972959034 0.0862434457268954
v 0.1356656954778342 -0.1269567125614825 -0.07400548767555448
v 0.12470641680810726 -0.14580151539337471 -0.06176752962421378
vt 0.03125 0.96875
vt 0.03125 0.46875
vt 0.0625 0.96875
vt 0.03125 0.46875
vt 0.0625 0.46875
vt 0.0625 0.96875
vt 0.09375 0.90625
vt 0.09375 0.40625
vt 0.125 0.90625
vt 0.09375 0.40625
vt 0.125 0.40625
vt 0.125 0.90625
vt 0.0625 0.96875
vt 0.0625 1
vt 0.03125 0.96875
vt 0.0625 1
vt 0.03125 1
vt 0.03125 0.96875
vt 0.34375 0.875
vt 0.34375 0.84375
vt 0.3125 0.875
vt 0.34375 0.84375
vt 0.3125 0.84375
vt 0.3125 0.875
vt 0.0625 0.9375
vt 0.0625 0.4375
vt 0.09375 0.9375
vt 0.0625 0.4375
vt 0.09375 0.4375
vt 0.09375 0.9375
vt 0 1
vt 0 0.5
vt 0.03125 1
vt 0 0.5
vt 0.03125 0.5
vt 0.03125 1
vn 1.4741548731937015 0.4246121638691289 1.9739736371425118
vn 1.4741548731937015 0.4246121638691289 1.9739736371425118
vn 1.4741548731937015 0.4246121638691289 1.9739736371425118
vn 1.4741548731937015 0.4246121638691289 1.9739736371425118
vn 1.4741548731937015 0.4246121638691289 1.9739736371425118
vn 1.4741548731937015 0.4246121638691289 1.9739736371425118
vn -1.4741548731937015 -0.4246121638691289 -1.9739736371425118
vn -1.4741548731937015 -0.4246121638691289 -1.9739736371425118
vn -1.4741548731937015 -0.4246121638691289 -1.9739736371425118
vn -1.4741548731937015 -0.4246121638691289 -1.9739736371425118
vn -1.4741548731937015 -0.4246121638691289 -1.9739736371425118
vn -1.4741548731937015 -0.4246121638691289 -1.9739736371425118
vn -1.6958211934729273 1.5869589070185317 0.9250685959444325
vn -1.6958211934729273 1.5869589070185317 0.9250685959444325
vn -1.6958211934729273 1.5869589070185317 0.9250685959444325
vn -1.6958211934729273 1.5869589070185317 0.9250685959444325
vn -1.6958211934729273 1.5869589070185317 0.9250685959444325
vn -1.6958211934729273 1.5869589070185317 0.9250685959444325
vn 1.6958211934729273 -1.5869589070185317 -0.9250685959444325
vn 1.6958211934729273 -1.5869589070185317 -0.9250685959444325
vn 1.6958211934729273 -1.5869589070185317 -0.9250685959444325
vn 1.6958211934729273 -1.5869589070185317 -0.9250685959444325
vn 1.6958211934729273 -1.5869589070185317 -0.9250685959444325
vn 1.6958211934729273 -1.5869589070185317 -0.9250685959444325
vn -1.0959278669726937 -1.8844802831892202 1.223795805134075
vn -1.0959278669726937 -1.8844802831892202 1.223795805134075
vn -1.0959278669726937 -1.8844802831892202 1.223795805134075
vn -1.0959278669726937 -1.8844802831892202 1.223795805134075
vn -1.0959278669726937 -1.8844802831892202 1.223795805134075
vn -1.0959278669726937 -1.8844802831892202 1.223795805134075
vn 1.0959278669726937 1.8844802831892202 -1.223795805134075
vn 1.0959278669726937 1.8844802831892202 -1.223795805134075
vn 1.0959278669726937 1.8844802831892202 -1.223795805134075
vn 1.0959278669726937 1.8844802831892202 -1.223795805134075
vn 1.0959278669726937 1.8844802831892202 -1.223795805134075
vn 1.0959278669726937 1.8844802831892202 -1.223795805134075
usemtl m_0
f 1/1/1 3/2/2 2/3/3
f 3/4/4 4/5/5 2/6/6
usemtl m_0
f 5/7/7 7/8/8 6/9/9
f 7/10/10 8/11/11 6/12/12
usemtl m_0
f 5/13/13 6/14/14 2/15/15
f 6/16/16 1/17/17 2/18/18
usemtl m_0
f 8/19/19 7/20/20 3/21/21
f 7/22/22 4/23/23 3/24/24
usemtl m_0
f 6/25/25 8/26/26 1/27/27
f 8/28/28 3/29/29 1/30/30
usemtl m_0
f 2/31/31 4/32/32 5/33/33
f 4/34/34 7/35/35 5/36/36
o cube
v -0.13847139635188377 0.11299348530677383 0.12659737228942564
v -0.11655283901242988 0.15068309097055824 0.10212145618674418
v -0.1299922903845191 0.10505869077168117 0.12197202930970347
v -0.10807373304506523 0.14274829643546558 0.097496113207022
v -0.14603593647630392 0.14219084769317564 0.06264198344389393
v -0.16795449381575778 0.10450124202939123 0.0871178995465754
v -0.13755683050893927 0.13425605315808298 0.058016640464171765
v -0.15947538784839316 0.09656644749429857 0.08249255656685323
vt 0.3125 0.96875
vt 0.3125 0.9375
vt 0.375 0.96875
vt 0.3125 0.9375
vt 0.375 0.9375
vt 0.375 0.96875
vt 0.3125 0.90625
vt 0.3125 0.875
vt 0.375 0.90625
vt 0.3125 0.875
vt 0.375 0.875
vt 0.375 0.90625
vt 0.25 0.65625
vt 0.25 0.71875
vt 0.1875 0.65625
vt 0.25 0.71875
vt 0.1875 0.71875
vt 0.1875 0.65625
vt 0.3125 0.71875
vt 0.3125 0.65625
vt 0.25 0.71875
vt 0.3125 0.65625
vt 0.25 0.65625
vt 0.25 0.71875
vt 0.3125 0.9375
vt 0.3125 0.90625
vt 0.375 0.9375
vt 0.3125 0.90625
vt 0.375 0.90625
vt 0.375 0.9375
vt 0.3125 1
vt 0.3125 0.96875
vt 0.375 1
vt 0.3125 0.96875
vt 0.375 0.96875
vt 0.375 1
vn 1.4741548731937015 0.4246121638691289 1.9739736371425118
vn 1.4741548731937015 0.4246121638691289 1.9739736371425118
vn 1.4741548731937015 0.4246121638691289 1.9739736371425118
vn 1.4741548731937015 0.4246121638691289 1.9739736371425118
vn 1.4741548731937015 0.4246121638691289 1.9739736371425118
vn 1.4741548731937015 0.4246121638691289 1.9739736371425118
vn -1.4741548731937015 -0.4246121638691289 -1.9739736371425118
vn -1.4741548731937015 -0.4246121638691289 -1.9739736371425118
vn -1.4741548731937015 -0.4246121638691289 -1.9739736371425118
vn -1.4741548731937015 -0.4246121638691289 -1.9739736371425118
vn -1.4741548731937015 -0.4246121638691289 -1.9739736371425118
vn -1.4741548731937015 -0.4246121638691289 -1.9739736371425118
vn -1.6958211934729273 1.5869589070185317 0.9250685959444325
vn -1.6958211934729273 1.5869589070185317 0.9250685959444325
vn -1.6958211934729273 1.5869589070185317 0.9250685959444325
vn -1.6958211934729273 1.5869589070185317 0.9250685959444325
vn -1.6958211934729273 1.5869589070185317 0.9250685959444325
vn -1.6958211934729273 1.5869589070185317 0.9250685959444325
vn 1.6958211934729273 -1.5869589070185317 -0.9250685959444325
vn 1.6958211934729273 -1.5869589070185317 -0.9250685959444325
vn 1.6958211934729273 -1.5869589070185317 -0.9250685959444325
vn 1.6958211934729273 -1.5869589070185317 -0.9250685959444325
vn 1.6958211934729273 -1.5869589070185317 -0.9250685959444325
vn 1.6958211934729273 -1.5869589070185317 -0.9250685959444325
vn -1.0959278669726937 -1.8844802831892202 1.223795805134075
vn -1.0959278669726937 -1.8844802831892202 1.223795805134075
vn -1.0959278669726937 -1.8844802831892202 1.223795805134075
vn -1.0959278669726937 -1.8844802831892202 1.223795805134075
vn -1.0959278669726937 -1.8844802831892202 1.223795805134075
vn -1.0959278669726937 -1.8844802831892202 1.223795805134075
vn 1.0959278669726937 1.8844802831892202 -1.223795805134075
vn 1.0959278669726937 1.8844802831892202 -1.223795805134075
vn 1.0959278669726937 1.8844802831892202 -1.223795805134075
vn 1.0959278669726937 1.8844802831892202 -1.223795805134075
vn 1.0959278669726937 1.8844802831892202 -1.223795805134075
vn 1.0959278669726937 1.8844802831892202 -1.223795805134075
usemtl m_0
f 9/37/37 11/38/38 10/39/39
f 11/40/40 12/41/41 10/42/42
usemtl m_0
f 13/43/43 15/44/44 14/45/45
f 15/46/46 16/47/47 14/48/48
usemtl m_0
f 13/49/49 14/50/50 10/51/51
f 14/52/52 9/53/53 10/54/54
usemtl m_0
f 16/55/55 15/56/56 11/57/57
f 15/58/58 12/59/59 11/60/60
usemtl m_0
f 14/61/61 16/62/62 9/63/63
f 16/64/64 11/65/65 9/66/66
usemtl m_0
f 10/67/67 12/68/68 13/69/69
f 12/70/70 15/71/71 13/72/72
o cube
v -0.16201757922287258 0.12949852831545133 0.15646224843997508
v -0.1291397432136918 0.18603293681112792 0.11974837428595284
v -0.1365802613207787 0.10569414471017334 0.14258621950080858
v -0.10370242531159787 0.16222855320584995 0.10587234534678636
v -0.17336438940950283 0.17329457189505407 0.0605291651716775
v -0.20624222541868364 0.11676016339937746 0.09724303932569972
v -0.1479270715074089 0.1494901882897761 0.046653136232510994
v -0.18080490751658973 0.09295577979409948 0.08336701038653321
vt 0.1875 0.9375
vt 0.1875 0.875
vt 0.28125 0.9375
vt 0.1875 0.875
vt 0.28125 0.875
vt 0.28125 0.9375
vt 0.21875 0.78125
vt 0.21875 0.71875
vt 0.3125 0.78125
vt 0.21875 0.71875
vt 0.3125 0.71875
vt 0.3125 0.78125
vt 0.1875 0.90625
vt 0.1875 1
vt 0.09375 0.90625
vt 0.1875 1
vt 0.09375 1
vt 0.09375 0.90625
vt 0.21875 0.875
vt 0.21875 0.78125
vt 0.125 0.875
vt 0.21875 0.78125
vt 0.125 0.78125
vt 0.125 0.875
vt 0.125 0.78125
vt 0.125 0.71875
vt 0.21875 0.78125
vt 0.125 0.71875
vt 0.21875 0.71875
vt 0.21875 0.78125
vt 0.1875 1
vt 0.1875 0.9375
vt 0.28125 1
vt 0.1875 0.9375
vt 0.28125 0.9375
vt 0.28125 1
vn 1.4741548731937015 0.4246121638691289 1.9739736371425118
vn 1.4741548731937015 0.4246121638691289 1.9739736371425118
vn 1.4741548731937015 0.4246121638691289 1.9739736371425118
vn 1.4741548731937015 0.4246121638691289 1.9739736371425118
vn 1.4741548731937015 0.4246121638691289 1.9739736371425118
vn 1.4741548731937015 0.4246121638691289 1.9739736371425118
vn -1.4741548731937015 -0.4246121638691289 -1.9739736371425118
vn -1.4741548731937015 -0.4246121638691289 -1.9739736371425118
vn -1.4741548731937015 -0.4246121638691289 -1.9739736371425118
vn -1.4741548731937015 -0.4246121638691289 -1.9739736371425118
vn -1.4741548731937015 -0.4246121638691289 -1.9739736371425118
vn -1.4741548731937015 -0.4246121638691289 -1.9739736371425118
vn -1.6958211934729273 1.5869589070185317 0.9250685959444325
vn -1.6958211934729273 1.5869589070185317 0.9250685959444325
vn -1.6958211934729273 1.5869589070185317 0.9250685959444325
vn -1.6958211934729273 1.5869589070185317 0.9250685959444325
vn -1.6958211934729273 1.5869589070185317 0.9250685959444325
vn -1.6958211934729273 1.5869589070185317 0.9250685959444325
vn 1.6958211934729273 -1.5869589070185317 -0.9250685959444325
vn 1.6958211934729273 -1.5869589070185317 -0.9250685959444325
vn 1.6958211934729273 -1.5869589070185317 -0.9250685959444325
vn 1.6958211934729273 -1.5869589070185317 -0.9250685959444325
vn 1.6958211934729273 -1.5869589070185317 -0.9250685959444325
vn 1.6958211934729273 -1.5869589070185317 -0.9250685959444325
vn -1.0959278669726937 -1.8844802831892202 1.223795805134075
vn -1.0959278669726937 -1.8844802831892202 1.223795805134075
vn -1.0959278669726937 -1.8844802831892202 1.223795805134075
vn -1.0959278669726937 -1.8844802831892202 1.223795805134075
vn -1.0959278669726937 -1.8844802831892202 1.223795805134075
vn -1.0959278669726937 -1.8844802831892202 1.223795805134075
vn 1.0959278669726937 1.8844802831892202 -1.223795805134075
vn 1.0959278669726937 1.8844802831892202 -1.223795805134075
vn 1.0959278669726937 1.8844802831892202 -1.223795805134075
vn 1.0959278669726937 1.8844802831892202 -1.223795805134075
vn 1.0959278669726937 1.8844802831892202 -1.223795805134075
vn 1.0959278669726937 1.8844802831892202 -1.223795805134075
usemtl m_0
f 17/73/73 19/74/74 18/75/75
f 19/76/76 20/77/77 18/78/78
usemtl m_0
f 21/79/79 23/80/80 22/81/81
f 23/82/82 24/83/83 22/84/84
usemtl m_0
f 21/85/85 22/86/86 18/87/87
f 22/88/88 17/89/89 18/90/90
usemtl m_0
f 24/91/91 23/92/92 19/93/93
f 23/94/94 20/95/95 19/96/96
usemtl m_0
f 22/97/97 24/98/98 17/99/99
f 24/100/100 19/101/101 17/102/102
usemtl m_0
f 18/103/103 20/104/104 21/105/105
f 20/106/106 23/107/107 21/108/108
o cube
v -0.18086692618870687 0.15266745798223713 0.14972408718803648
v -0.15894836884925298 0.19035706364602153 0.12524817108535502
v -0.16390871425397757 0.1367978689120518 0.14047340122859214
v -0.1419901569145237 0.17448747457583622 0.11599748512591068
v -0.18843146631312702 0.18186482036863894 0.08576869834250478
v -0.21035002365258088 0.14417521470485453 0.11024461444518624
v -0.17147325437839775 0.16599523129845362 0.07651801238306044
v -0.19339181171785164 0.1283056256346692 0.1009939284857419
vt 0.21875 0.8125
vt 0.21875 0.78125
vt 0.28125 0.8125
vt 0.21875 0.78125
vt 0.28125 0.78125
vt 0.28125 0.8125
vt 0.3125 0.6875
vt 0.3125 0.65625
vt 0.375 0.6875
vt 0.3125 0.65625
vt 0.375 0.65625
vt 0.375 0.6875
vt 0.28125 0.8125
vt 0.28125 0.875
vt 0.21875 0.8125
vt 0.28125 0.875
vt 0.21875 0.875
vt 0.21875 0.8125
vt 0.1875 0.71875
vt 0.1875 0.65625
vt 0.125 0.71875
vt 0.1875 0.65625
vt 0.125 0.65625
vt 0.125 0.71875
vt 0.28125 0.8125
vt 0.28125 0.78125
vt 0.34375 0.8125
vt 0.28125 0.78125
vt 0.34375 0.78125
vt 0.34375 0.8125
vt 0.125 0.90625
vt 0.125 0.875
vt 0.1875 0.90625
vt 0.125 0.875
vt 0.1875 0.875
vt 0.1875 0.90625
vn 1.4741548731937015 0.4246121638691289 1.9739736371425118
vn 1.4741548731937015 0.4246121638691289 1.9739736371425118
vn 1.4741548731937015 0.4246121638691289 1.9739736371425118
vn 1.4741548731937015 0.4246121638691289 1.9739736371425118
vn 1.4741548731937015 0.4246121638691289 1.9739736371425118
vn 1.4741548731937015 0.4246121638691289 1.9739736371425118
vn -1.4741548731937015 -0.4246121638691289 -1.9739736371425118
vn -1.4741548731937015 -0.4246121638691289 -1.9739736371425118
vn -1.4741548731937015 -0.4246121638691289 -1.9739736371425118
vn -1.4741548731937015 -0.4246121638691289 -1.9739736371425118
vn -1.4741548731937015 -0.4246121638691289 -1.9739736371425118
vn -1.4741548731937015 -0.4246121638691289 -1.9739736371425118
vn -1.6958211934729273 1.5869589070185317 0.9250685959444325
vn -1.6958211934729273 1.5869589070185317 0.9250685959444325
vn -1.6958211934729273 1.5869589070185317 0.9250685959444325
vn -1.6958211934729273 1.5869589070185317 0.9250685959444325
vn -1.6958211934729273 1.5869589070185317 0.9250685959444325
vn -1.6958211934729273 1.5869589070185317 0.9250685959444325
vn 1.6958211934729273 -1.5869589070185317 -0.9250685959444325
vn 1.6958211934729273 -1.5869589070185317 -0.9250685959444325
vn 1.6958211934729273 -1.5869589070185317 -0.9250685959444325
vn 1.6958211934729273 -1.5869589070185317 -0.9250685959444325
vn 1.6958211934729273 -1.5869589070185317 -0.9250685959444325
vn 1.6958211934729273 -1.5869589070185317 -0.9250685959444325
vn -1.0959278669726937 -1.8844802831892202 1.223795805134075
vn -1.0959278669726937 -1.8844802831892202 1.223795805134075
vn -1.0959278669726937 -1.8844802831892202 1.223795805134075
vn -1.0959278669726937 -1.8844802831892202 1.223795805134075
vn -1.0959278669726937 -1.8844802831892202 1.223795805134075
vn -1.0959278669726937 -1.8844802831892202 1.223795805134075
vn 1.0959278669726937 1.8844802831892202 -1.223795805134075
vn 1.0959278669726937 1.8844802831892202 -1.223795805134075
vn 1.0959278669726937 1.8844802831892202 -1.223795805134075
vn 1.0959278669726937 1.8844802831892202 -1.223795805134075
vn 1.0959278669726937 1.8844802831892202 -1.223795805134075
vn 1.0959278669726937 1.8844802831892202 -1.223795805134075
usemtl m_0
f 25/109/109 27/110/110 26/111/111
f 27/112/112 28/113/113 26/114/114
usemtl m_0
f 29/115/115 31/116/116 30/117/117
f 31/118/118 32/119/119 30/120/120
usemtl m_0
f 29/121/121 30/122/122 26/123/123
f 30/124/124 25/125/125 26/126/126
usemtl m_0
f 32/127/127 31/128/128 27/129/129
f 31/130/130 28/131/131 27/132/132
usemtl m_0
f 30/133/133 32/134/134 25/135/135
f 32/136/136 27/137/137 25/138/138
usemtl m_0
f 26/139/139 28/140/140 29/141/141
f 28/142/142 31/143/143 29/144/144
o cube
v -0.1997162731545412 0.17583638764902287 0.14298592593609766
v -0.1887569944848143 0.1946811904809151 0.13074796788475695
v -0.1742789552524473 0.1520320040437449 0.12910989699693115
v -0.1633196765827204 0.1708768068756371 0.11687193894559045
v -0.20349854321675132 0.1904350688422238 0.11100823151333183
v -0.21445782188647824 0.1715902660103316 0.12324618956467254
v -0.1780612253146574 0.16663068523694582 0.09713220257416533
v -0.18902050398438433 0.1477858824050536 0.10937016062550603
vt 0.28125 1
vt 0.28125 0.9375
vt 0.3125 1
vt 0.28125 0.9375
vt 0.3125 0.9375
vt 0.3125 1
vt 0.28125 0.875
vt 0.28125 0.8125
vt 0.3125 0.875
vt 0.28125 0.8125
vt 0.3125 0.8125
vt 0.3125 0.875
vt 0.34375 0.8125
vt 0.34375 0.84375
vt 0.3125 0.8125
vt 0.34375 0.84375
vt 0.3125 0.84375
vt 0.3125 0.8125
vt 0.34375 0.78125
vt 0.34375 0.75
vt 0.3125 0.78125
vt 0.34375 0.75
vt 0.3125 0.75
vt 0.3125 0.78125
vt 0.28125 0.9375
vt 0.28125 0.875
vt 0.3125 0.9375
vt 0.28125 0.875
vt 0.3125 0.875
vt 0.3125 0.9375
vt 0.0625 1
vt 0.0625 0.9375
vt 0.09375 1
vt 0.0625 0.9375
vt 0.09375 0.9375
vt 0.09375 1
vn 1.4741548731937015 0.4246121638691289 1.9739736371425118
vn 1.4741548731937015 0.4246121638691289 1.9739736371425118
vn 1.4741548731937015 0.4246121638691289 1.9739736371425118
vn 1.4741548731937015 0.4246121638691289 1.9739736371425118
vn 1.4741548731937015 0.4246121638691289 1.9739736371425118
vn 1.4741548731937015 0.4246121638691289 1.9739736371425118
vn -1.4741548731937015 -0.4246121638691289 -1.9739736371425118
vn -1.4741548731937015 -0.4246121638691289 -1.9739736371425118
vn -1.4741548731937015 -0.4246121638691289 -1.9739736371425118
vn -1.4741548731937015 -0.4246121638691289 -1.9739736371425118
vn -1.4741548731937015 -0.4246121638691289 -1.9739736371425118
vn -1.4741548731937015 -0.4246121638691289 -1.9739736371425118
vn -1.6958211934729273 1.5869589070185317 0.9250685959444325
vn -1.6958211934729273 1.5869589070185317 0.9250685959444325
vn -1.6958211934729273 1.5869589070185317 0.9250685959444325
vn -1.6958211934729273 1.5869589070185317 0.9250685959444325
vn -1.6958211934729273 1.5869589070185317 0.9250685959444325
vn -1.6958211934729273 1.5869589070185317 0.9250685959444325
vn 1.6958211934729273 -1.5869589070185317 -0.9250685959444325
vn 1.6958211934729273 -1.5869589070185317 -0.9250685959444325
vn 1.6958211934729273 -1.5869589070185317 -0.9250685959444325
vn 1.6958211934729273 -1.5869589070185317 -0.9250685959444325
vn 1.6958211934729273 -1.5869589070185317 -0.9250685959444325
vn 1.6958211934729273 -1.5869589070185317 -0.9250685959444325
vn -1.0959278669726937 -1.8844802831892202 1.223795805134075
vn -1.0959278669726937 -1.8844802831892202 1.223795805134075
vn -1.0959278669726937 -1.8844802831892202 1.223795805134075
vn -1.0959278669726937 -1.8844802831892202 1.223795805134075
vn -1.0959278669726937 -1.8844802831892202 1.223795805134075
vn -1.0959278669726937 -1.8844802831892202 1.223795805134075
vn 1.0959278669726937 1.8844802831892202 -1.223795805134075
vn 1.0959278669726937 1.8844802831892202 -1.223795805134075
vn 1.0959278669726937 1.8844802831892202 -1.223795805134075
vn 1.0959278669726937 1.8844802831892202 -1.223795805134075
vn 1.0959278669726937 1.8844802831892202 -1.223795805134075
vn 1.0959278669726937 1.8844802831892202 -1.223795805134075
usemtl m_0
f 33/145/145 35/146/146 34/147/147
f 35/148/148 36/149/149 34/150/150
usemtl m_0
f 37/151/151 39/152/152 38/153/153
f 39/154/154 40/155/155 38/156/156
usemtl m_0
f 37/157/157 38/158/158 34/159/159
f 38/160/160 33/161/161 34/162/162
usemtl m_0
f 40/163/163 39/164/164 35/165/165
f 39/166/166 36/167/167 35/168/168
usemtl m_0
f 38/169/169 40/170/170 33/171/171
f 40/172/172 35/173/173 33/174/174
usemtl m_0
f 34/175/175 36/176/176 37/177/177
f 36/178/178 39/179/179 37/180/180
